<mxfile host="Electron" modified="2024-10-16T02:31:40.277Z" agent="Mozilla/5.0 (Windows NT 10.0; Win64; x64) AppleWebKit/537.36 (KHTML, like Gecko) draw.io/22.1.2 Chrome/114.0.5735.289 Electron/25.9.4 Safari/537.36" etag="bKf1S1vNUrIM8duQS2_A" version="22.1.2" type="device">
  <diagram name="第 1 页" id="3po40dE7qTVf0d2Irddn">
    <mxGraphModel dx="1036" dy="614" grid="1" gridSize="10" guides="1" tooltips="1" connect="1" arrows="1" fold="1" page="1" pageScale="1" pageWidth="827" pageHeight="1169" math="0" shadow="0">
      <root>
        <mxCell id="0" />
        <mxCell id="1" parent="0" />
        <mxCell id="7lmBLdd4XHBWfrIacyvC-2" value="" style="rounded=0;whiteSpace=wrap;html=1;" vertex="1" parent="1">
          <mxGeometry x="90" y="130" width="640" height="390" as="geometry" />
        </mxCell>
        <mxCell id="7lmBLdd4XHBWfrIacyvC-3" value="Login In" style="rounded=0;whiteSpace=wrap;html=1;" vertex="1" parent="1">
          <mxGeometry x="354" y="170" width="120" height="60" as="geometry" />
        </mxCell>
        <mxCell id="7lmBLdd4XHBWfrIacyvC-4" value="" style="rounded=0;whiteSpace=wrap;html=1;align=left;" vertex="1" parent="1">
          <mxGeometry x="286" y="270" width="256" height="40" as="geometry" />
        </mxCell>
        <mxCell id="7lmBLdd4XHBWfrIacyvC-5" value="Username:" style="rounded=0;whiteSpace=wrap;html=1;" vertex="1" parent="1">
          <mxGeometry x="190" y="270" width="80" height="40" as="geometry" />
        </mxCell>
        <mxCell id="7lmBLdd4XHBWfrIacyvC-6" value="Password:" style="rounded=0;whiteSpace=wrap;html=1;" vertex="1" parent="1">
          <mxGeometry x="190" y="320" width="80" height="40" as="geometry" />
        </mxCell>
        <mxCell id="7lmBLdd4XHBWfrIacyvC-7" value="" style="rounded=0;whiteSpace=wrap;html=1;align=left;" vertex="1" parent="1">
          <mxGeometry x="286" y="320" width="256" height="40" as="geometry" />
        </mxCell>
        <mxCell id="7lmBLdd4XHBWfrIacyvC-8" value="Create an account ?" style="text;html=1;strokeColor=none;fillColor=none;align=center;verticalAlign=middle;whiteSpace=wrap;rounded=0;" vertex="1" parent="1">
          <mxGeometry x="339" y="450" width="150" height="20" as="geometry" />
        </mxCell>
        <mxCell id="7lmBLdd4XHBWfrIacyvC-9" value="" style="rounded=0;whiteSpace=wrap;html=1;" vertex="1" parent="1">
          <mxGeometry x="90" y="600" width="640" height="390" as="geometry" />
        </mxCell>
        <mxCell id="7lmBLdd4XHBWfrIacyvC-10" value="Register" style="rounded=0;whiteSpace=wrap;html=1;" vertex="1" parent="1">
          <mxGeometry x="354" y="640" width="120" height="60" as="geometry" />
        </mxCell>
        <mxCell id="7lmBLdd4XHBWfrIacyvC-11" value="" style="rounded=0;whiteSpace=wrap;html=1;align=left;" vertex="1" parent="1">
          <mxGeometry x="286" y="740" width="256" height="40" as="geometry" />
        </mxCell>
        <mxCell id="7lmBLdd4XHBWfrIacyvC-12" value="Username:" style="rounded=0;whiteSpace=wrap;html=1;" vertex="1" parent="1">
          <mxGeometry x="190" y="740" width="80" height="40" as="geometry" />
        </mxCell>
        <mxCell id="7lmBLdd4XHBWfrIacyvC-13" value="Password:" style="rounded=0;whiteSpace=wrap;html=1;" vertex="1" parent="1">
          <mxGeometry x="190" y="790" width="80" height="40" as="geometry" />
        </mxCell>
        <mxCell id="7lmBLdd4XHBWfrIacyvC-14" value="" style="rounded=0;whiteSpace=wrap;html=1;align=left;" vertex="1" parent="1">
          <mxGeometry x="286" y="790" width="256" height="40" as="geometry" />
        </mxCell>
        <mxCell id="7lmBLdd4XHBWfrIacyvC-15" value="Login in" style="text;html=1;strokeColor=none;fillColor=none;align=center;verticalAlign=middle;whiteSpace=wrap;rounded=0;" vertex="1" parent="1">
          <mxGeometry x="339" y="920" width="150" height="20" as="geometry" />
        </mxCell>
        <mxCell id="7lmBLdd4XHBWfrIacyvC-16" value="Make sure:" style="rounded=0;whiteSpace=wrap;html=1;" vertex="1" parent="1">
          <mxGeometry x="190" y="840" width="80" height="40" as="geometry" />
        </mxCell>
        <mxCell id="7lmBLdd4XHBWfrIacyvC-17" value="" style="rounded=0;whiteSpace=wrap;html=1;align=left;" vertex="1" parent="1">
          <mxGeometry x="286" y="840" width="256" height="40" as="geometry" />
        </mxCell>
        <mxCell id="7lmBLdd4XHBWfrIacyvC-18" value="" style="rounded=0;whiteSpace=wrap;html=1;fillColor=#dae8fc;strokeColor=#6c8ebf;" vertex="1" parent="1">
          <mxGeometry x="70" y="1110" width="690" height="410" as="geometry" />
        </mxCell>
        <mxCell id="7lmBLdd4XHBWfrIacyvC-19" value="create k8s cluster" style="rounded=0;whiteSpace=wrap;html=1;" vertex="1" parent="1">
          <mxGeometry x="80" y="1199" width="120" height="60" as="geometry" />
        </mxCell>
        <mxCell id="7lmBLdd4XHBWfrIacyvC-21" value="Cluster Manage" style="text;html=1;strokeColor=none;fillColor=none;align=center;verticalAlign=middle;whiteSpace=wrap;rounded=0;" vertex="1" parent="1">
          <mxGeometry x="359" y="1120" width="110" height="20" as="geometry" />
        </mxCell>
        <mxCell id="7lmBLdd4XHBWfrIacyvC-22" value="集群管理" style="text;html=1;strokeColor=none;fillColor=none;align=center;verticalAlign=middle;whiteSpace=wrap;rounded=0;" vertex="1" parent="1">
          <mxGeometry x="380" y="1080" width="60" height="30" as="geometry" />
        </mxCell>
        <mxCell id="7lmBLdd4XHBWfrIacyvC-24" value="cluster-a&lt;br&gt;node-1&lt;br&gt;node-2&lt;br&gt;node-3" style="rounded=0;whiteSpace=wrap;html=1;" vertex="1" parent="1">
          <mxGeometry x="381" y="1219" width="150" height="120" as="geometry" />
        </mxCell>
        <mxCell id="7lmBLdd4XHBWfrIacyvC-25" value="cluster-b&lt;br&gt;node-1&lt;br&gt;node-2&lt;br&gt;node-3" style="rounded=0;whiteSpace=wrap;html=1;" vertex="1" parent="1">
          <mxGeometry x="581" y="1219" width="150" height="120" as="geometry" />
        </mxCell>
        <mxCell id="7lmBLdd4XHBWfrIacyvC-27" value="" style="rounded=0;whiteSpace=wrap;html=1;fillColor=#dae8fc;strokeColor=#6c8ebf;" vertex="1" parent="1">
          <mxGeometry x="69" y="1540" width="690" height="410" as="geometry" />
        </mxCell>
        <mxCell id="7lmBLdd4XHBWfrIacyvC-28" value="节点管理" style="text;html=1;strokeColor=none;fillColor=none;align=center;verticalAlign=middle;whiteSpace=wrap;rounded=0;" vertex="1" parent="1">
          <mxGeometry x="375" y="1550" width="60" height="30" as="geometry" />
        </mxCell>
        <mxCell id="7lmBLdd4XHBWfrIacyvC-29" value="cluster-a&lt;br&gt;node-1&lt;br&gt;node-2&lt;br&gt;node-3" style="rounded=0;whiteSpace=wrap;html=1;" vertex="1" parent="1">
          <mxGeometry x="110" y="1610" width="240" height="220" as="geometry" />
        </mxCell>
        <mxCell id="7lmBLdd4XHBWfrIacyvC-31" value="remove" style="rounded=0;whiteSpace=wrap;html=1;" vertex="1" parent="1">
          <mxGeometry x="620" y="1610" width="81" height="30" as="geometry" />
        </mxCell>
        <mxCell id="7lmBLdd4XHBWfrIacyvC-32" value="remove" style="rounded=0;whiteSpace=wrap;html=1;" vertex="1" parent="1">
          <mxGeometry x="620" y="1650" width="81" height="30" as="geometry" />
        </mxCell>
        <mxCell id="7lmBLdd4XHBWfrIacyvC-34" value="node-b" style="text;html=1;strokeColor=none;fillColor=none;align=center;verticalAlign=middle;whiteSpace=wrap;rounded=0;" vertex="1" parent="1">
          <mxGeometry x="400" y="1650" width="60" height="30" as="geometry" />
        </mxCell>
        <mxCell id="7lmBLdd4XHBWfrIacyvC-35" value="add new node" style="rounded=0;whiteSpace=wrap;html=1;" vertex="1" parent="1">
          <mxGeometry x="510" y="1739" width="81" height="30" as="geometry" />
        </mxCell>
        <mxCell id="7lmBLdd4XHBWfrIacyvC-37" value="node name" style="rounded=0;whiteSpace=wrap;html=1;" vertex="1" parent="1">
          <mxGeometry x="408" y="1739" width="81" height="30" as="geometry" />
        </mxCell>
        <mxCell id="7lmBLdd4XHBWfrIacyvC-43" value="2024-10-16 10：25" style="rounded=0;whiteSpace=wrap;html=1;" vertex="1" parent="1">
          <mxGeometry x="496" y="1615" width="109" height="20" as="geometry" />
        </mxCell>
        <mxCell id="7lmBLdd4XHBWfrIacyvC-38" value="" style="rounded=0;whiteSpace=wrap;html=1;fillColor=#dae8fc;strokeColor=#6c8ebf;" vertex="1" parent="1">
          <mxGeometry x="69" y="2010" width="690" height="410" as="geometry" />
        </mxCell>
        <mxCell id="7lmBLdd4XHBWfrIacyvC-39" value="部署应用" style="text;html=1;strokeColor=none;fillColor=none;align=center;verticalAlign=middle;whiteSpace=wrap;rounded=0;" vertex="1" parent="1">
          <mxGeometry x="384" y="2030" width="60" height="30" as="geometry" />
        </mxCell>
        <mxCell id="7lmBLdd4XHBWfrIacyvC-40" value="Cluster List" style="text;html=1;strokeColor=none;fillColor=none;align=center;verticalAlign=middle;whiteSpace=wrap;rounded=0;" vertex="1" parent="1">
          <mxGeometry x="375" y="1169" width="90" height="30" as="geometry" />
        </mxCell>
        <mxCell id="7lmBLdd4XHBWfrIacyvC-42" value="创建集群的配置参数&lt;br&gt;集群名字：&lt;br&gt;实例个数：&lt;br&gt;实例配置：&lt;br&gt;&lt;br&gt;初始化命令" style="rounded=0;whiteSpace=wrap;html=1;align=left;" vertex="1" parent="1">
          <mxGeometry x="380" y="1369" width="230" height="121" as="geometry" />
        </mxCell>
        <mxCell id="7lmBLdd4XHBWfrIacyvC-33" value="node-a" style="text;html=1;strokeColor=none;fillColor=none;align=center;verticalAlign=middle;whiteSpace=wrap;rounded=0;" vertex="1" parent="1">
          <mxGeometry x="400" y="1610" width="60" height="30" as="geometry" />
        </mxCell>
        <mxCell id="7lmBLdd4XHBWfrIacyvC-44" value="加入时间" style="text;html=1;strokeColor=none;fillColor=none;align=center;verticalAlign=middle;whiteSpace=wrap;rounded=0;" vertex="1" parent="1">
          <mxGeometry x="521" y="1580" width="60" height="30" as="geometry" />
        </mxCell>
        <mxCell id="7lmBLdd4XHBWfrIacyvC-45" value="部署集群：" style="rounded=0;whiteSpace=wrap;html=1;" vertex="1" parent="1">
          <mxGeometry x="230" y="2110" width="120" height="40" as="geometry" />
        </mxCell>
        <mxCell id="7lmBLdd4XHBWfrIacyvC-46" value="cluster-a" style="rounded=0;whiteSpace=wrap;html=1;" vertex="1" parent="1">
          <mxGeometry x="369" y="2110" width="120" height="40" as="geometry" />
        </mxCell>
        <mxCell id="7lmBLdd4XHBWfrIacyvC-47" value="部署节点：" style="rounded=0;whiteSpace=wrap;html=1;" vertex="1" parent="1">
          <mxGeometry x="230" y="2170" width="120" height="40" as="geometry" />
        </mxCell>
        <mxCell id="7lmBLdd4XHBWfrIacyvC-48" value="node-a, node-b" style="rounded=0;whiteSpace=wrap;html=1;" vertex="1" parent="1">
          <mxGeometry x="369" y="2170" width="120" height="40" as="geometry" />
        </mxCell>
        <mxCell id="7lmBLdd4XHBWfrIacyvC-49" value="部署应用：" style="rounded=0;whiteSpace=wrap;html=1;" vertex="1" parent="1">
          <mxGeometry x="230" y="2240" width="120" height="40" as="geometry" />
        </mxCell>
        <mxCell id="7lmBLdd4XHBWfrIacyvC-50" value="github url" style="rounded=0;whiteSpace=wrap;html=1;" vertex="1" parent="1">
          <mxGeometry x="369" y="2240" width="120" height="40" as="geometry" />
        </mxCell>
        <mxCell id="7lmBLdd4XHBWfrIacyvC-51" value="开始部署" style="rounded=0;whiteSpace=wrap;html=1;" vertex="1" parent="1">
          <mxGeometry x="345" y="2320" width="130" height="40" as="geometry" />
        </mxCell>
        <mxCell id="7lmBLdd4XHBWfrIacyvC-52" value="部署日志" style="rounded=0;whiteSpace=wrap;html=1;" vertex="1" parent="1">
          <mxGeometry x="610" y="2110" width="120" height="170" as="geometry" />
        </mxCell>
        <mxCell id="7lmBLdd4XHBWfrIacyvC-53" value="destroy k8s cluster" style="rounded=0;whiteSpace=wrap;html=1;" vertex="1" parent="1">
          <mxGeometry x="80" y="1270" width="120" height="60" as="geometry" />
        </mxCell>
      </root>
    </mxGraphModel>
  </diagram>
</mxfile>
